<svg width="74" height="62" viewBox="0 0 74 62" fill="none" xmlns="http://www.w3.org/2000/svg">
<path fill-rule="evenodd" clip-rule="evenodd" d="M19.7608 25.7274H6.4611C5.54387 25.7274 4.85596 24.8293 4.85596 23.7929C4.85596 22.6875 5.6012 21.8584 6.4611 21.8584H19.7608C20.6781 21.8584 21.366 22.7566 21.366 23.7929C21.366 24.8293 20.6781 25.7274 19.7608 25.7274Z" fill="#375F9B"/>
<path fill-rule="evenodd" clip-rule="evenodd" d="M19.7723 48.9418H7.42088C6.51017 48.9418 5.82715 48.0436 5.82715 47.0072C5.82715 45.9017 6.56709 45.0728 7.42088 45.0728H19.7723C20.683 45.0728 21.366 45.9708 21.366 47.0072C21.366 48.1127 20.683 48.9418 19.7723 48.9418Z" fill="#375F9B"/>
<mask id="mask0" mask-type="alpha" maskUnits="userSpaceOnUse" x="0" y="33" width="20" height="5">
<path fill-rule="evenodd" clip-rule="evenodd" d="M0 33.5947H19.3365V37.2058H0V33.5947Z" fill="white"/>
</mask>
<g mask="url(#mask0)">
<path fill-rule="evenodd" clip-rule="evenodd" d="M17.6468 37.2058H1.68639C0.722737 37.2058 0 36.3675 0 35.4003C0 34.3684 0.782965 33.5947 1.68639 33.5947H17.6468C18.6105 33.5947 19.3332 34.433 19.3332 35.4003C19.3934 36.4319 18.6105 37.2058 17.6468 37.2058Z" fill="#375F9B"/>
</g>
<path fill-rule="evenodd" clip-rule="evenodd" d="M70.004 17.9896C67.8039 15.3914 65.1878 13.1886 62.1553 11.4941C63.1068 10.7033 64.3554 10.2515 65.6635 10.2515C68.5768 10.2515 70.8959 12.4543 70.8959 15.2219C70.8959 16.2386 70.5391 17.1988 70.004 17.9896Z" fill="#375F9B"/>
<path fill-rule="evenodd" clip-rule="evenodd" d="M25.1722 17.9896C27.3719 15.3914 29.9878 13.1886 33.0199 11.4941C32.0687 10.7033 30.8202 10.2515 29.5122 10.2515C26.599 10.2515 24.2209 12.4543 24.2804 15.2219C24.2804 16.2386 24.6371 17.1988 25.1722 17.9896Z" fill="#375F9B"/>
<mask id="mask1" mask-type="alpha" maskUnits="userSpaceOnUse" x="23" y="0" width="51" height="62">
<path fill-rule="evenodd" clip-rule="evenodd" d="M23.3398 0.638184H73.7521V61.5162H23.3398V0.638184Z" fill="white"/>
</mask>
<g mask="url(#mask1)">
<path fill-rule="evenodd" clip-rule="evenodd" d="M73.3411 31.5528C71.2918 20.6732 63.6215 12.9446 52.9064 10.8043C50.74 10.3883 50.6229 9.97202 50.7985 7.71303L50.8571 7.11852H51.4426H52.5551H53.609H54.9557C56.0682 7.05892 56.5952 6.64276 56.7123 5.63223C56.8294 4.50251 56.8294 3.25419 56.7123 1.94611C56.6538 1.47065 56.4195 0.638184 55.3656 0.638184H48.4564C46.0558 0.638184 43.8308 0.638184 41.6644 0.697635C40.7276 0.697635 40.0835 1.41105 40.0249 2.42172V4.38361V4.74047C40.0249 6.4644 40.7276 7.11852 42.4256 7.11852H44.9433H46.0558H46.6413L46.6999 7.71303C46.9341 9.91257 46.817 10.3287 44.7091 10.6856C44.5335 10.6856 44.3578 10.7449 44.1821 10.8043C44.0065 10.8638 43.8894 10.8638 43.7137 10.9232C37.3315 12.1123 31.4763 16.0362 27.729 21.6841C23.9231 27.3912 22.5178 34.1688 23.806 40.7085C26.2066 52.9553 36.3947 61.5164 48.515 61.5164C50.3301 61.5164 52.0867 61.3379 53.9018 60.9219C66.9589 58.1277 75.8003 44.6915 73.3411 31.5528ZM63.0359 50.7556C59.1715 54.6795 54.0189 56.879 48.6321 56.879H48.4564C37.0973 56.7603 27.9046 47.3074 27.9632 35.7144C27.9632 24.3594 37.2144 15.0254 48.5736 15.0254H48.6907C54.2531 15.0848 59.4057 17.2252 63.2116 21.2083C67.0175 25.1321 69.1254 30.4232 69.1254 36.0711C69.1254 41.6595 66.9589 46.8319 63.0359 50.7556Z" fill="#375F9B"/>
</g>
<path fill-rule="evenodd" clip-rule="evenodd" d="M51.5314 38.6253C50.6712 39.6994 49.3813 40.2364 48.0912 40.2364C47.1083 40.2364 46.1868 39.938 45.3882 39.2815C44.4667 38.5656 43.8524 37.5513 43.7295 36.4176C43.6065 35.2839 43.9137 34.1502 44.651 33.2551C45.081 32.718 45.6953 32.2408 46.3097 32.0021L46.3709 23.4695C46.3709 23.0518 46.5554 22.6341 46.8626 22.3357C47.1697 22.0374 47.5996 21.8584 48.0298 21.8584C48.9513 21.8584 49.6885 22.5744 49.6885 23.5291L49.627 31.9424C50.0569 32.1213 50.4256 32.3004 50.7328 32.5391C51.6543 33.2551 52.2686 34.2695 52.3915 35.4031C52.5758 36.5964 52.2686 37.7303 51.5314 38.6253Z" fill="#375F9B"/>
</svg>
