<?xml version="1.0" encoding="UTF-8"?>
<svg width="18px" height="17px" viewBox="0 0 18 17" version="1.1" xmlns="http://www.w3.org/2000/svg" xmlns:xlink="http://www.w3.org/1999/xlink">
    <!-- Generator: Sketch 53.2 (72643) - https://sketchapp.com -->
    <title>Shape@2x</title>
    <desc>Created with Sketch.</desc>
    <g id="Symbols" stroke="none" stroke-width="1" fill="none" fill-rule="evenodd">
        <g id="Desktop_Footer" transform="translate(-294.000000, -353.000000)" fill="#000000" fill-rule="nonzero">
            <g id="FOOTER">
                <g id="sm-icons-FPO" transform="translate(199.000000, 285.000000)">
                    <g id="LinkedIn" transform="translate(94.110674, 67.716598)">
                        <path d="M4.71060976,16.5913415 L1.38134146,16.5913415 L1.38134146,5.89963415 L4.71060976,5.89963415 L4.71060976,16.5913415 Z M2.95560976,4.56317073 L2.93182927,4.56317073 C2.41645696,4.60160167 1.90841836,4.42327885 1.53012664,4.07116961 C1.15183491,3.71906036 0.937593493,3.22509391 0.93902439,2.70829268 C0.93902439,1.65243902 1.74280488,0.853414634 2.97939024,0.853414634 C3.49721548,0.812334501 4.0087011,0.989151033 4.39060395,1.34126005 C4.77250681,1.69336906 4.99019618,2.18884153 4.99121951,2.70829268 C4.99121951,3.74512195 4.20646341,4.56317073 2.95560976,4.56317073 Z M18.0609756,16.5913415 L14.2560976,16.5913415 L14.2560976,11.06 C14.2560976,9.63317073 13.6663415,8.62487805 12.3536585,8.62487805 C11.5319827,8.62481047 10.8031152,9.15228043 10.5463415,9.93280488 C10.4668015,10.2156174 10.4394037,10.5105461 10.4654878,10.8031707 L10.4654878,16.5913415 L6.74621951,16.5913415 C6.74621951,16.5913415 6.79378049,6.79378049 6.74621951,5.90439024 L10.4940244,5.90439024 L10.4940244,7.59756098 C10.717561,6.86512195 11.9208537,5.81878049 13.8232927,5.81878049 C16.2013415,5.81878049 18.0609756,7.355 18.0609756,10.6652439 L18.0609756,16.5913415 Z" id="Shape"></path>
                    </g>
                </g>
            </g>
        </g>
    </g>
</svg>