<?xml version="1.0" encoding="UTF-8"?>
<svg width="18px" height="26px" viewBox="0 0 18 26" version="1.1" xmlns="http://www.w3.org/2000/svg" xmlns:xlink="http://www.w3.org/1999/xlink">
    <!-- Generator: Sketch 53.2 (72643) - https://sketchapp.com -->
    <title>Fill 1</title>
    <desc>Created with Sketch.</desc>
    <g id="Symbols" stroke="none" stroke-width="1" fill="none" fill-rule="evenodd" opacity="0.6">
        <g id="Desktop_Header" transform="translate(-1302.000000, -6.000000)" fill="#96A5AF">
            <g id="Header">
                <g id="Menu-items-Copy" transform="translate(1159.000000, 6.000000)">
                    <path d="M151.999814,0 C147.021055,0 143,4.08992909 143,9.07059012 C143,10.9544005 143.729792,13.1901498 144.619594,14.6641207 L151.195044,25.5488288 C151.362335,25.827562 151.667814,26 152,26 C152.332186,26 152.637652,25.8275651 152.804956,25.5488288 L159.380406,14.6641207 C160.270208,13.1901498 161,10.9542493 161,9.07059012 C161,4.08992909 156.978945,0 152.000186,0 L151.999814,0 Z M152.000061,2 C155.85794,2 159,5.14661638 159,9.09229838 C159,10.4267143 158.314036,12.5820047 157.658994,13.6635802 L152,23 L146.341006,13.6635802 C145.685964,12.5819456 145,10.4268325 145,9.09229838 C145,5.14661638 148.14206,2 151.999939,2 L152.000061,2 Z M152,4 C149.24975,4 147,6.24975 147,9 C147,11.75025 149.24975,14 152,14 C154.75025,14 157,11.75025 157,9 C157,6.24975 154.75025,4 152,4 Z M152,6 C153.66758,6 155,7.33242 155,9 C155,10.66758 153.66758,12 152,12 C150.33242,12 149,10.66758 149,9 C149,7.33242 150.33242,6 152,6 Z" id="Fill-1"></path>
                </g>
            </g>
        </g>
    </g>
</svg>