<?xml version="1.0" encoding="utf-8"?>
<!-- Generator: Adobe Illustrator 21.0.1, SVG Export Plug-In . SVG Version: 6.00 Build 0)  -->
<svg version="1.1" id="Layer_1" xmlns="http://www.w3.org/2000/svg" xmlns:xlink="http://www.w3.org/1999/xlink" x="0px" y="0px"
	 width="268.4px" height="448px" viewBox="0 0 268.4 448" style="enable-background:new 0 0 268.4 448;" xml:space="preserve">
<g>
	<path d="M134.2,0C60.2,0,0,58.7,0,132.7c0,16.4,3.5,34.3,9.8,50.4H9.7l0.6,1.2l0,0c0.5,1.1,1,2.2,1.5,3.3L134.2,448L256,188.9
		l0.6-1.2c0.5-1.1,1.1-2.2,1.6-3.4l0.4-1.1c6.5-16.1,9.8-33.1,9.8-50.3C268.4,58.7,208.2,0,134.2,0z M243.3,177.4l-0.2,0.5
		c-0.3,0.6-0.6,1.3-0.9,1.9l-1,2.1l-107,227.4L27.1,181.9l-0.9-2c-0.3-0.6-0.6-1.2-0.8-1.8c-5.9-14.5-9.1-30.6-9.1-45.4
		c0-65,52.9-116.5,118-116.5s118,51.4,118,116.5C252.2,147.9,249.2,162.9,243.3,177.4z"/>
	<path d="M134.2,64c-35.3,0-64,28.7-64,64s28.7,64,64,64s64-28.7,64-64S169.5,64,134.2,64z M134.2,174.9c-25.9,0-46.9-21-46.9-46.9
		s21-46.9,46.9-46.9s46.9,21,46.9,46.9S160.1,174.9,134.2,174.9z"/>
</g>
</svg>
