<?xml version="1.0" encoding="UTF-8"?>
<svg width="18px" height="15px" viewBox="0 0 18 15" version="1.1" xmlns="http://www.w3.org/2000/svg" xmlns:xlink="http://www.w3.org/1999/xlink">
    <!-- Generator: Sketch 53.2 (72643) - https://sketchapp.com -->
    <title>Twitter</title>
    <desc>Created with Sketch.</desc>
    <g id="Symbols" stroke="none" stroke-width="1" fill="none" fill-rule="evenodd">
        <g id="Desktop_Footer" transform="translate(-201.000000, -356.000000)" fill="#000000">
            <g id="FOOTER">
                <g id="sm-icons-FPO" transform="translate(199.000000, 285.000000)">
                    <g id="Twitter" transform="translate(1.610674, 70.913473)">
                        <path d="M18.0609756,2.11487805 C17.4199913,2.39813762 16.7403008,2.58409067 16.0443902,2.66658537 C16.7768778,2.22860725 17.3246997,1.53875745 17.5853659,0.726097561 C16.8960188,1.13541946 16.1415279,1.42338081 15.3547561,1.57743902 C14.3679583,0.529538452 12.8419601,0.189229111 11.5034269,0.718562935 C10.1648936,1.24789676 9.28439649,2.53987416 9.28121951,3.97926829 C9.28020665,4.24821546 9.31053306,4.51636479 9.37158537,4.77829268 C6.54678164,4.63672443 3.9144444,3.30413611 2.12804878,1.11134146 C1.19800109,2.71719611 1.67459935,4.76927422 3.21719512,5.80085366 C2.65890051,5.78349822 2.11275392,5.6335117 1.62390244,5.36329268 L1.62390244,5.40609756 C1.62488543,7.07878737 2.80454697,8.51904868 4.44426829,8.8495122 C4.14223575,8.93297053 3.83017727,8.97457833 3.51682927,8.97317073 C3.29023032,8.9746196 3.06403248,8.95391135 2.84146341,8.91134146 C3.299728,10.3436798 4.61953896,11.3249306 6.12317073,11.3512195 C4.65296653,12.4976588 2.79108465,13.0203523 0.93902439,12.8065854 C2.54502458,13.8385038 4.41397655,14.3866416 6.32292683,14.3856098 C12.7864634,14.3856098 16.3107317,9.035 16.3107317,4.39780488 C16.3107317,4.24560976 16.3107317,4.09341463 16.3107317,3.92219512 C16.9966053,3.42819765 17.5892333,2.81624475 18.0609756,2.11487805" id="Path"></path>
                    </g>
                </g>
            </g>
        </g>
    </g>
</svg>