<?xml version="1.0" encoding="UTF-8"?>
<svg width="18px" height="16px" viewBox="0 0 18 16" version="1.1" xmlns="http://www.w3.org/2000/svg" xmlns:xlink="http://www.w3.org/1999/xlink">
    <!-- Generator: Sketch 53.2 (72643) - https://sketchapp.com -->
    <title>YouTube 1</title>
    <desc>Created with Sketch.</desc>
    <g id="Symbols" stroke="none" stroke-width="1" fill="none" fill-rule="evenodd">
        <g id="Desktop_Footer" transform="translate(-246.000000, -354.000000)" fill="#000000" fill-rule="nonzero">
            <g id="FOOTER">
                <g id="sm-icons-FPO" transform="translate(199.000000, 285.000000)">
                    <g id="YouTube-1" transform="translate(46.610674, 69.618160)">
                        <path d="M13.0052439,1.71658537 L13.0052439,4.97926829 C12.9291192,5.07032552 12.8392589,5.14895327 12.7389024,5.21231707 C12.6644173,5.26510079 12.5776165,5.2978558 12.4868293,5.30743902 C12.4218808,5.31091038 12.3588779,5.28465917 12.3156098,5.23609756 C12.2680725,5.17179197 12.2460452,5.0921547 12.2537805,5.01256098 L12.2537805,1.71658537 L11.3739024,1.71658537 L11.3739024,5.30743902 C11.3584742,5.51309689 11.4138568,5.71784495 11.5308537,5.88768293 C11.6480608,6.02600531 11.8261945,6.0972588 12.0064634,6.07792683 C12.1868576,6.07566296 12.3642847,6.03171313 12.524878,5.9495122 C12.7130578,5.84404397 12.8819291,5.70733865 13.0242683,5.5452439 L13.0242683,6.02085366 L13.9041463,6.02085366 L13.9041463,1.74036585 L13.0052439,1.71658537 Z M10.3228049,1.92585366 C10.0759531,1.70687824 9.75355791,1.59259001 9.42390244,1.60719512 C9.08096239,1.59410068 8.74431078,1.70182919 8.47268293,1.91158537 C8.23798235,2.10701451 8.10784044,2.40071316 8.12073171,2.70585366 L8.12073171,4.93170732 C8.10593266,5.25732213 8.23046345,5.57383789 8.46317073,5.80207317 C9.00954653,6.23411115 9.78118517,6.23411115 10.327561,5.80207317 C10.5664649,5.58166116 10.6938951,5.26570408 10.6747561,4.94121951 L10.6747561,2.74390244 C10.6839333,2.43164271 10.5531073,2.13161525 10.3180488,1.92585366 L10.3228049,1.92585366 Z M9.77109756,5.01731707 C9.77491938,5.11680979 9.73698428,5.21337188 9.66646341,5.28365854 C9.59000747,5.35666485 9.48662483,5.39457181 9.38109756,5.38829268 C9.28130084,5.39395859 9.18401027,5.3557373 9.1147561,5.28365854 C9.04957059,5.21065509 9.01544302,5.11509789 9.01963415,5.01731707 L9.01963415,2.66780488 C9.01579966,2.58065345 9.05488707,2.49714853 9.12426829,2.44426829 C9.19530238,2.38309162 9.28756429,2.35233765 9.38109756,2.35865854 C9.4833052,2.35293578 9.58428424,2.38322949 9.66646341,2.44426829 C9.73584464,2.49714853 9.77493205,2.58065345 9.77109756,2.66780488 L9.77109756,5.01731707 Z M7.04109756,0.189878049 L6.42756098,2.52036585 L6.35621951,2.52036585 L5.71890244,0.189878049 L4.72012195,0.189878049 L5.89963415,3.69512195 L5.89963415,6.00182927 L6.89365854,6.00182927 L6.89365854,3.6 L8.03987805,0.189878049 L7.04109756,0.189878049 Z M13.8993902,10.4535366 C13.9587285,10.5591218 13.9852239,10.6800069 13.9754878,10.8007317 L13.9754878,11.1954878 L13.304878,11.1954878 L13.304878,10.8007317 C13.2911548,10.6791488 13.3197057,10.5565478 13.3857317,10.4535366 C13.4540792,10.3804773 13.5496499,10.3390127 13.6496951,10.3390127 C13.7497403,10.3390127 13.8453111,10.3804773 13.9136585,10.4535366 L13.8993902,10.4535366 Z M11.1884146,10.4535366 C11.1290506,10.3817363 11.0388175,10.3428122 10.9458537,10.3489024 C10.8885526,10.3471555 10.8316116,10.3585437 10.7793902,10.3821951 C10.7194267,10.4148186 10.6648777,10.4565326 10.6176829,10.5058537 L10.6176829,12.9409756 C10.6720731,12.9982626 10.7365676,13.0450211 10.8079268,13.0789024 C10.8647723,13.1049094 10.926187,13.119455 10.9886585,13.1217073 C11.0699868,13.1319658 11.1508648,13.0996146 11.2026829,13.0360976 C11.2565728,12.9582499 11.2817868,12.8641177 11.2740244,12.7697561 L11.2740244,10.7293902 C11.2842955,10.6244955 11.2555061,10.5194987 11.1931707,10.4345122 L11.1884146,10.4535366 Z M11.1884146,10.4535366 C11.1290506,10.3817363 11.0388175,10.3428122 10.9458537,10.3489024 C10.8885526,10.3471555 10.8316116,10.3585437 10.7793902,10.3821951 C10.7194267,10.4148186 10.6648777,10.4565326 10.6176829,10.5058537 L10.6176829,12.9409756 C10.6720731,12.9982626 10.7365676,13.0450211 10.8079268,13.0789024 C10.8647723,13.1049094 10.926187,13.119455 10.9886585,13.1217073 C11.0699868,13.1319658 11.1508648,13.0996146 11.2026829,13.0360976 C11.2565728,12.9582499 11.2817868,12.8641177 11.2740244,12.7697561 L11.2740244,10.7293902 C11.2842955,10.6244955 11.2555061,10.5194987 11.1931707,10.4345122 L11.1884146,10.4535366 Z M15.6163415,7.44292683 L3.38365854,7.44292683 C2.04044145,7.45065865 0.951992847,8.53487205 0.93902439,9.87804878 L0.93902439,12.375 C0.944253719,13.7221909 2.03645996,14.8122723 3.38365854,14.814878 L15.6163415,14.814878 C16.9661591,14.8096487 18.0583698,13.7153131 18.0609756,12.3654878 L18.0609756,9.87804878 C18.0583859,8.52744263 16.9669274,7.43173714 15.6163415,7.42390244 L15.6163415,7.44292683 Z M6.67487805,9.15987805 L5.76170732,9.15987805 L5.76170732,13.6829268 L4.88182927,13.6829268 L4.88182927,9.14085366 L3.97817073,9.14085366 L3.97817073,8.37036585 L6.67963415,8.37036585 L6.67487805,9.15987805 Z M9.24792683,13.6829268 L8.46317073,13.6829268 L8.46317073,13.2073171 C8.3394852,13.3561528 8.1875349,13.4790062 8.01609756,13.5687805 C7.87926189,13.6502516 7.72349893,13.6945211 7.56426829,13.6971951 C7.40471349,13.7104362 7.24920336,13.6425122 7.1504878,13.5164634 C7.05286794,13.3620409 7.00782054,13.1801828 7.02207317,12.9980488 L7.02207317,9.75439024 L7.79731707,9.75439024 L7.79731707,12.7317073 C7.79210071,12.8022539 7.81050655,12.8725307 7.84963415,12.9314634 C7.88802023,12.9774398 7.94715536,13.0007355 8.00658537,12.9932927 C8.08492316,12.9869729 8.15952393,12.9571326 8.22060976,12.9076829 C8.3146118,12.8548032 8.39708403,12.7836507 8.46317073,12.6984146 L8.46317073,9.75439024 L9.24792683,9.75439024 L9.24792683,13.6829268 Z M12.1015854,12.8696341 C12.0997404,13.0951889 12.0208702,13.3133405 11.8780488,13.4879268 C11.7441597,13.64018 11.5478104,13.7225766 11.3453659,13.7114634 C11.2041602,13.715817 11.0639487,13.6864704 10.9363415,13.6258537 C10.8069872,13.5607285 10.6921274,13.4701349 10.5986585,13.3595122 L10.5986585,13.6829268 L9.83768293,13.6829268 L9.83768293,8.37036585 L10.622439,8.37036585 L10.622439,10.0682927 C10.7184425,9.96032486 10.832759,9.87015975 10.960122,9.80195122 C11.0716546,9.74277424 11.1953714,9.71021719 11.3215854,9.70682927 C11.53829,9.69581956 11.7470873,9.78960139 11.8828049,9.95890244 C12.0289179,10.1704992 12.0993048,10.4252326 12.082561,10.6818293 L12.1015854,12.8696341 Z M14.812561,11.8232927 L13.304878,11.8232927 L13.304878,12.5414634 C13.2905548,12.6863959 13.3151833,12.8325246 13.3762195,12.9647561 C13.436509,13.0501956 13.5387009,13.095817 13.642561,13.0836585 C13.7431115,13.0944423 13.8425795,13.0553656 13.9089024,12.9790244 C13.9752536,12.8416415 14.0016236,12.6883655 13.985,12.5367073 L13.985,12.3559756 L14.7982927,12.3559756 L14.7982927,12.5557317 C14.8241142,12.8872728 14.7142674,13.215097 14.4939024,13.4641463 C14.2596396,13.6833319 13.943079,13.7923118 13.6235366,13.7637805 C13.3145808,13.7822348 13.0127672,13.6660192 12.7959756,13.445122 C12.5853282,13.1982855 12.4780018,12.8797135 12.4963415,12.5557317 L12.4963415,10.8054878 C12.484696,10.4948611 12.6057528,10.1939486 12.8292683,9.97792683 C13.0593609,9.76268752 13.3657386,9.64800982 13.6806098,9.65926829 C13.983892,9.64166386 14.2806515,9.75208599 14.4986585,9.96365854 C14.7063805,10.1949639 14.8126091,10.4999428 14.7935366,10.8102439 L14.812561,11.8232927 Z M10.9268293,10.329878 C10.8695282,10.3281311 10.8125872,10.3395193 10.7603659,10.3631707 C10.7004023,10.3957942 10.6458533,10.4375082 10.5986585,10.4868293 L10.5986585,12.9219512 C10.6530487,12.9792382 10.7175432,13.0259967 10.7889024,13.059878 C10.8457479,13.085885 10.9071626,13.1004306 10.9696341,13.1026829 C11.0509624,13.1129414 11.1318404,13.0805902 11.1836585,13.0170732 C11.2375485,12.9392255 11.2627624,12.8450934 11.255,12.7507317 L11.255,10.7293902 C11.2639129,10.6238927 11.2334123,10.5188351 11.1693902,10.4345122 C11.1100262,10.3627119 11.0197931,10.3237878 10.9268293,10.329878 L10.9268293,10.329878 Z M11.1693902,10.4345122 C11.1100262,10.3627119 11.0197931,10.3237878 10.9268293,10.329878 C10.8695282,10.3281311 10.8125872,10.3395193 10.7603659,10.3631707 C10.7004023,10.3957942 10.6458533,10.4375082 10.5986585,10.4868293 L10.5986585,12.9219512 C10.6530487,12.9792382 10.7175432,13.0259967 10.7889024,13.059878 C10.8457479,13.085885 10.9071626,13.1004306 10.9696341,13.1026829 C11.0509624,13.1129414 11.1318404,13.0805902 11.1836585,13.0170732 C11.2375485,12.9392255 11.2627624,12.8450934 11.255,12.7507317 L11.255,10.7293902 C11.270807,10.6268526 11.2488352,10.5220639 11.1931707,10.4345122 L11.1693902,10.4345122 Z M11.1693902,10.4345122 C11.1100262,10.3627119 11.0197931,10.3237878 10.9268293,10.329878 C10.8695282,10.3281311 10.8125872,10.3395193 10.7603659,10.3631707 C10.7004023,10.3957942 10.6458533,10.4375082 10.5986585,10.4868293 L10.5986585,12.9219512 C10.6530487,12.9792382 10.7175432,13.0259967 10.7889024,13.059878 C10.8457479,13.085885 10.9071626,13.1004306 10.9696341,13.1026829 C11.0509624,13.1129414 11.1318404,13.0805902 11.1836585,13.0170732 C11.2375485,12.9392255 11.2627624,12.8450934 11.255,12.7507317 L11.255,10.7293902 C11.270807,10.6268526 11.2488352,10.5220639 11.1931707,10.4345122 L11.1693902,10.4345122 Z" id="Shape"></path>
                    </g>
                </g>
            </g>
        </g>
    </g>
</svg>